<svg xmlns="http://www.w3.org/2000/svg" viewBox="0 0 1920 1080" width="1920" height="1080">
  <defs>
    <!-- Gradients -->
    <linearGradient id="bgGrad" x1="0%" y1="0%" x2="100%" y2="100%">
      <stop offset="0%" style="stop-color:#0f172a"/>
      <stop offset="100%" style="stop-color:#1e293b"/>
    </linearGradient>
    <linearGradient id="cardGrad" x1="0%" y1="0%" x2="0%" y2="100%">
      <stop offset="0%" style="stop-color:#1e293b"/>
      <stop offset="100%" style="stop-color:#0f172a"/>
    </linearGradient>
    <linearGradient id="purpleGrad" x1="0%" y1="0%" x2="100%" y2="0%">
      <stop offset="0%" style="stop-color:#8b5cf6"/>
      <stop offset="100%" style="stop-color:#6366f1"/>
    </linearGradient>
    <linearGradient id="greenGrad" x1="0%" y1="0%" x2="100%" y2="0%">
      <stop offset="0%" style="stop-color:#10b981"/>
      <stop offset="100%" style="stop-color:#34d399"/>
    </linearGradient>
    <linearGradient id="blueGrad" x1="0%" y1="0%" x2="100%" y2="0%">
      <stop offset="0%" style="stop-color:#3b82f6"/>
      <stop offset="100%" style="stop-color:#60a5fa"/>
    </linearGradient>
    <linearGradient id="chartGrad" x1="0%" y1="0%" x2="0%" y2="100%">
      <stop offset="0%" style="stop-color:#8b5cf6;stop-opacity:0.4"/>
      <stop offset="100%" style="stop-color:#8b5cf6;stop-opacity:0"/>
    </linearGradient>
    <linearGradient id="chartGrad2" x1="0%" y1="0%" x2="0%" y2="100%">
      <stop offset="0%" style="stop-color:#3b82f6;stop-opacity:0.3"/>
      <stop offset="100%" style="stop-color:#3b82f6;stop-opacity:0"/>
    </linearGradient>
  </defs>

  <!-- Background -->
  <rect fill="url(#bgGrad)" width="1920" height="1080"/>
  
  <!-- Sidebar -->
  <rect fill="#0f172a" x="0" y="0" width="280" height="1080"/>
  <rect fill="#8b5cf6" x="0" y="0" width="4" height="1080" opacity="0.5"/>
  
  <!-- Logo area -->
  <circle cx="50" cy="50" r="20" fill="url(#purpleGrad)"/>
  <rect fill="#e2e8f0" x="80" y="40" width="120" height="20" rx="4"/>
  
  <!-- Sidebar menu items -->
  <rect fill="#1e293b" x="20" y="120" width="240" height="48" rx="8"/>
  <rect fill="url(#purpleGrad)" x="20" y="120" width="4" height="48" rx="2"/>
  <circle cx="50" cy="144" r="10" fill="#8b5cf6" opacity="0.3"/>
  <rect fill="#e2e8f0" x="72" y="138" width="100" height="12" rx="3"/>
  
  <g opacity="0.5">
    <circle cx="50" cy="200" r="10" fill="#64748b"/>
    <rect fill="#64748b" x="72" y="194" width="80" height="12" rx="3"/>
  </g>
  
  <g opacity="0.5">
    <circle cx="50" cy="256" r="10" fill="#64748b"/>
    <rect fill="#64748b" x="72" y="250" width="90" height="12" rx="3"/>
  </g>
  
  <g opacity="0.5">
    <circle cx="50" cy="312" r="10" fill="#64748b"/>
    <rect fill="#64748b" x="72" y="306" width="70" height="12" rx="3"/>
  </g>
  
  <g opacity="0.5">
    <circle cx="50" cy="368" r="10" fill="#64748b"/>
    <rect fill="#64748b" x="72" y="362" width="85" height="12" rx="3"/>
  </g>
  
  <!-- Sidebar bottom user -->
  <rect fill="#1e293b" x="20" y="1000" width="240" height="60" rx="8"/>
  <circle cx="50" cy="1030" r="16" fill="#3b82f6"/>
  <rect fill="#94a3b8" x="76" y="1020" width="80" height="10" rx="3"/>
  <rect fill="#64748b" x="76" y="1034" width="60" height="8" rx="2"/>
  
  <!-- Main content area -->
  <!-- Top bar -->
  <rect fill="#1e293b" x="280" y="0" width="1640" height="72" opacity="0.5"/>
  <rect fill="#334155" x="320" y="20" width="300" height="32" rx="8"/>
  <circle cx="340" cy="36" r="10" fill="#64748b"/>
  <rect fill="#64748b" x="360" y="30" width="100" height="12" rx="3"/>
  
  <!-- Profile and notifications -->
  <circle cx="1820" cy="36" r="18" fill="#8b5cf6"/>
  <circle cx="1760" cy="36" r="14" fill="#334155"/>
  <circle cx="1760" cy="36" r="4" fill="#f59e0b"/>
  <circle cx="1700" cy="36" r="14" fill="#334155"/>
  
  <!-- Page title -->
  <rect fill="#f1f5f9" x="320" y="100" width="200" height="28" rx="4"/>
  <rect fill="#64748b" x="320" y="140" width="350" height="12" rx="3"/>
  
  <!-- Stats cards row -->
  <!-- Card 1 - Revenue -->
  <rect fill="url(#cardGrad)" x="320" y="180" width="380" height="160" rx="16" stroke="#334155" stroke-width="1"/>
  <rect fill="#8b5cf6" x="340" y="200" width="48" height="48" rx="12" opacity="0.2"/>
  <circle cx="364" cy="224" r="12" fill="#8b5cf6"/>
  <rect fill="#94a3b8" x="400" y="208" width="80" height="10" rx="3"/>
  <rect fill="#f1f5f9" x="400" y="226" width="120" height="18" rx="4"/>
  <rect fill="url(#greenGrad)" x="340" y="270" width="60" height="24" rx="6"/>
  <rect fill="#34d399" x="410" y="276" width="80" height="12" rx="3" opacity="0.5"/>
  <!-- Mini sparkline -->
  <polyline fill="none" stroke="#8b5cf6" stroke-width="2" points="340,320 360,310 380,315 400,305 420,300 440,290 460,295 480,280 500,285 520,270 540,260 560,265 580,250 600,240 620,235 640,220 660,210"/>
  
  <!-- Card 2 - Users -->
  <rect fill="url(#cardGrad)" x="720" y="180" width="380" height="160" rx="16" stroke="#334155" stroke-width="1"/>
  <rect fill="#3b82f6" x="740" y="200" width="48" height="48" rx="12" opacity="0.2"/>
  <circle cx="764" cy="224" r="12" fill="#3b82f6"/>
  <rect fill="#94a3b8" x="800" y="208" width="70" height="10" rx="3"/>
  <rect fill="#f1f5f9" x="800" y="226" width="100" height="18" rx="4"/>
  <rect fill="url(#greenGrad)" x="740" y="270" width="50" height="24" rx="6"/>
  <rect fill="#34d399" x="800" y="276" width="60" height="12" rx="3" opacity="0.5"/>
  <!-- Mini bar chart -->
  <rect fill="#3b82f6" x="740" y="300" width="20" height="35" rx="3" opacity="0.6"/>
  <rect fill="#3b82f6" x="768" y="290" width="20" height="45" rx="3" opacity="0.7"/>
  <rect fill="#3b82f6" x="796" y="310" width="20" height="25" rx="3" opacity="0.5"/>
  <rect fill="#3b82f6" x="824" y="285" width="20" height="50" rx="3" opacity="0.8"/>
  <rect fill="#3b82f6" x="852" y="295" width="20" height="40" rx="3" opacity="0.7"/>
  <rect fill="#3b82f6" x="880" y="280" width="20" height="55" rx="3" opacity="0.9"/>
  <rect fill="#3b82f6" x="908" y="270" width="20" height="65" rx="3"/>
  
  <!-- Card 3 - Conversion -->
  <rect fill="url(#cardGrad)" x="1120" y="180" width="380" height="160" rx="16" stroke="#334155" stroke-width="1"/>
  <rect fill="#10b981" x="1140" y="200" width="48" height="48" rx="12" opacity="0.2"/>
  <circle cx="1164" cy="224" r="12" fill="#10b981"/>
  <rect fill="#94a3b8" x="1200" y="208" width="90" height="10" rx="3"/>
  <rect fill="#f1f5f9" x="1200" y="226" width="80" height="18" rx="4"/>
  <rect fill="#ef4444" x="1140" y="270" width="50" height="24" rx="6" opacity="0.8"/>
  <rect fill="#f87171" x="1200" y="276" width="60" height="12" rx="3" opacity="0.5"/>
  <!-- Donut chart -->
  <circle cx="1420" cy="260" r="50" fill="none" stroke="#334155" stroke-width="16"/>
  <circle cx="1420" cy="260" r="50" fill="none" stroke="#10b981" stroke-width="16" stroke-dasharray="220 94" stroke-linecap="round" transform="rotate(-90 1420 260)"/>
  <text x="1420" y="266" fill="#f1f5f9" font-family="Arial" font-size="20" text-anchor="middle" font-weight="bold">74%</text>
  
  <!-- Card 4 - Active Sessions -->
  <rect fill="url(#cardGrad)" x="1520" y="180" width="360" height="160" rx="16" stroke="#334155" stroke-width="1"/>
  <rect fill="#f59e0b" x="1540" y="200" width="48" height="48" rx="12" opacity="0.2"/>
  <circle cx="1564" cy="224" r="12" fill="#f59e0b"/>
  <rect fill="#94a3b8" x="1600" y="208" width="100" height="10" rx="3"/>
  <rect fill="#f1f5f9" x="1600" y="226" width="70" height="18" rx="4"/>
  <rect fill="url(#greenGrad)" x="1540" y="270" width="55" height="24" rx="6"/>
  <!-- Live indicator -->
  <circle cx="1840" cy="210" r="6" fill="#10b981">
    <animate attributeName="opacity" values="1;0.4;1" dur="2s" repeatCount="indefinite"/>
  </circle>
  <rect fill="#10b981" x="1780" y="204" width="50" height="12" rx="3" opacity="0.5"/>
  <!-- Activity dots -->
  <g>
    <circle cx="1560" cy="310" r="4" fill="#f59e0b" opacity="0.6"/>
    <circle cx="1590" cy="305" r="4" fill="#f59e0b" opacity="0.8"/>
    <circle cx="1620" cy="315" r="4" fill="#f59e0b" opacity="0.5"/>
    <circle cx="1650" cy="300" r="4" fill="#f59e0b" opacity="0.9"/>
    <circle cx="1680" cy="308" r="4" fill="#f59e0b" opacity="0.7"/>
    <circle cx="1710" cy="295" r="4" fill="#f59e0b"/>
    <circle cx="1740" cy="318" r="4" fill="#f59e0b" opacity="0.6"/>
    <circle cx="1770" cy="302" r="4" fill="#f59e0b" opacity="0.8"/>
    <circle cx="1800" cy="290" r="4" fill="#f59e0b"/>
    <circle cx="1830" cy="285" r="4" fill="#f59e0b"/>
  </g>
  
  <!-- Main chart area -->
  <rect fill="url(#cardGrad)" x="320" y="360" width="1180" height="440" rx="16" stroke="#334155" stroke-width="1"/>
  
  <!-- Chart header -->
  <rect fill="#94a3b8" x="350" y="390" width="120" height="16" rx="4"/>
  <rect fill="#64748b" x="350" y="414" width="200" height="10" rx="3"/>
  
  <!-- Chart legend -->
  <circle cx="1300" cy="398" r="6" fill="#8b5cf6"/>
  <rect fill="#94a3b8" x="1315" y="392" width="60" height="12" rx="3"/>
  <circle cx="1400" cy="398" r="6" fill="#3b82f6"/>
  <rect fill="#94a3b8" x="1415" y="392" width="50" height="12" rx="3"/>
  
  <!-- Chart grid lines -->
  <g stroke="#334155" stroke-width="1">
    <line x1="380" y1="480" x2="1460" y2="480"/>
    <line x1="380" y1="540" x2="1460" y2="540"/>
    <line x1="380" y1="600" x2="1460" y2="600"/>
    <line x1="380" y1="660" x2="1460" y2="660"/>
    <line x1="380" y1="720" x2="1460" y2="720"/>
  </g>
  
  <!-- Y-axis labels -->
  <text x="360" y="485" fill="#64748b" font-family="Arial" font-size="12" text-anchor="end">50K</text>
  <text x="360" y="545" fill="#64748b" font-family="Arial" font-size="12" text-anchor="end">40K</text>
  <text x="360" y="605" fill="#64748b" font-family="Arial" font-size="12" text-anchor="end">30K</text>
  <text x="360" y="665" fill="#64748b" font-family="Arial" font-size="12" text-anchor="end">20K</text>
  <text x="360" y="725" fill="#64748b" font-family="Arial" font-size="12" text-anchor="end">10K</text>
  
  <!-- X-axis labels -->
  <text x="420" y="760" fill="#64748b" font-family="Arial" font-size="12" text-anchor="middle">Jan</text>
  <text x="540" y="760" fill="#64748b" font-family="Arial" font-size="12" text-anchor="middle">Feb</text>
  <text x="660" y="760" fill="#64748b" font-family="Arial" font-size="12" text-anchor="middle">Mar</text>
  <text x="780" y="760" fill="#64748b" font-family="Arial" font-size="12" text-anchor="middle">Apr</text>
  <text x="900" y="760" fill="#64748b" font-family="Arial" font-size="12" text-anchor="middle">May</text>
  <text x="1020" y="760" fill="#64748b" font-family="Arial" font-size="12" text-anchor="middle">Jun</text>
  <text x="1140" y="760" fill="#64748b" font-family="Arial" font-size="12" text-anchor="middle">Jul</text>
  <text x="1260" y="760" fill="#64748b" font-family="Arial" font-size="12" text-anchor="middle">Aug</text>
  <text x="1380" y="760" fill="#64748b" font-family="Arial" font-size="12" text-anchor="middle">Sep</text>
  
  <!-- Area chart fill -->
  <path fill="url(#chartGrad)" d="M420,650 L480,620 L540,640 L600,580 L660,600 L720,550 L780,520 L840,540 L900,490 L960,510 L1020,470 L1080,440 L1140,460 L1200,420 L1260,430 L1320,400 L1380,380 L1380,720 L420,720 Z"/>
  
  <!-- Line chart 1 (Revenue) -->
  <polyline fill="none" stroke="#8b5cf6" stroke-width="3" stroke-linecap="round" stroke-linejoin="round"
    points="420,650 480,620 540,640 600,580 660,600 720,550 780,520 840,540 900,490 960,510 1020,470 1080,440 1140,460 1200,420 1260,430 1320,400 1380,380"/>
  
  <!-- Area chart fill 2 -->
  <path fill="url(#chartGrad2)" d="M420,680 L480,670 L540,690 L600,660 L660,670 L720,640 L780,620 L840,630 L900,600 L960,590 L1020,570 L1080,550 L1140,560 L1200,530 L1260,540 L1320,510 L1380,490 L1380,720 L420,720 Z"/>
  
  <!-- Line chart 2 (Users) -->
  <polyline fill="none" stroke="#3b82f6" stroke-width="3" stroke-linecap="round" stroke-linejoin="round"
    points="420,680 480,670 540,690 600,660 660,670 720,640 780,620 840,630 900,600 960,590 1020,570 1080,550 1140,560 1200,530 1260,540 1320,510 1380,490"/>
  
  <!-- Data points -->
  <g fill="#8b5cf6">
    <circle cx="420" cy="650" r="5"/>
    <circle cx="600" cy="580" r="5"/>
    <circle cx="780" cy="520" r="5"/>
    <circle cx="900" cy="490" r="5"/>
    <circle cx="1080" cy="440" r="5"/>
    <circle cx="1200" cy="420" r="5"/>
    <circle cx="1380" cy="380" r="6" stroke="#0f172a" stroke-width="2"/>
  </g>
  
  <g fill="#3b82f6">
    <circle cx="420" cy="680" r="5"/>
    <circle cx="600" cy="660" r="5"/>
    <circle cx="780" cy="620" r="5"/>
    <circle cx="900" cy="600" r="5"/>
    <circle cx="1080" cy="550" r="5"/>
    <circle cx="1200" cy="530" r="5"/>
    <circle cx="1380" cy="490" r="6" stroke="#0f172a" stroke-width="2"/>
  </g>
  
  <!-- Right side panel - Recent Activity -->
  <rect fill="url(#cardGrad)" x="1520" y="360" width="360" height="440" rx="16" stroke="#334155" stroke-width="1"/>
  <rect fill="#94a3b8" x="1550" y="390" width="140" height="16" rx="4"/>
  
  <!-- Activity items -->
  <g>
    <circle cx="1570" cy="450" r="16" fill="#8b5cf6" opacity="0.2"/>
    <circle cx="1570" cy="450" r="8" fill="#8b5cf6"/>
    <rect fill="#e2e8f0" x="1600" y="440" width="180" height="10" rx="3"/>
    <rect fill="#64748b" x="1600" y="456" width="100" height="8" rx="2"/>
  </g>
  
  <g>
    <circle cx="1570" cy="520" r="16" fill="#10b981" opacity="0.2"/>
    <circle cx="1570" cy="520" r="8" fill="#10b981"/>
    <rect fill="#e2e8f0" x="1600" y="510" width="160" height="10" rx="3"/>
    <rect fill="#64748b" x="1600" y="526" width="120" height="8" rx="2"/>
  </g>
  
  <g>
    <circle cx="1570" cy="590" r="16" fill="#3b82f6" opacity="0.2"/>
    <circle cx="1570" cy="590" r="8" fill="#3b82f6"/>
    <rect fill="#e2e8f0" x="1600" y="580" width="200" height="10" rx="3"/>
    <rect fill="#64748b" x="1600" y="596" width="80" height="8" rx="2"/>
  </g>
  
  <g>
    <circle cx="1570" cy="660" r="16" fill="#f59e0b" opacity="0.2"/>
    <circle cx="1570" cy="660" r="8" fill="#f59e0b"/>
    <rect fill="#e2e8f0" x="1600" y="650" width="140" height="10" rx="3"/>
    <rect fill="#64748b" x="1600" y="666" width="110" height="8" rx="2"/>
  </g>
  
  <g>
    <circle cx="1570" cy="730" r="16" fill="#ec4899" opacity="0.2"/>
    <circle cx="1570" cy="730" r="8" fill="#ec4899"/>
    <rect fill="#e2e8f0" x="1600" y="720" width="170" height="10" rx="3"/>
    <rect fill="#64748b" x="1600" y="736" width="90" height="8" rx="2"/>
  </g>
  
  <!-- Bottom section - Table -->
  <rect fill="url(#cardGrad)" x="320" y="820" width="1560" height="240" rx="16" stroke="#334155" stroke-width="1"/>
  <rect fill="#94a3b8" x="350" y="850" width="160" height="16" rx="4"/>
  
  <!-- Table header -->
  <rect fill="#1e293b" x="350" y="890" width="1500" height="40" rx="8"/>
  <rect fill="#64748b" x="380" y="904" width="80" height="12" rx="3"/>
  <rect fill="#64748b" x="580" y="904" width="60" height="12" rx="3"/>
  <rect fill="#64748b" x="780" y="904" width="70" height="12" rx="3"/>
  <rect fill="#64748b" x="980" y="904" width="50" height="12" rx="3"/>
  <rect fill="#64748b" x="1180" y="904" width="80" height="12" rx="3"/>
  <rect fill="#64748b" x="1480" y="904" width="60" height="12" rx="3"/>
  
  <!-- Table rows -->
  <g>
    <circle cx="400" cy="960" r="16" fill="#3b82f6"/>
    <rect fill="#e2e8f0" x="430" y="954" width="100" height="12" rx="3"/>
    <rect fill="#94a3b8" x="580" y="954" width="120" height="12" rx="3"/>
    <rect fill="#10b981" x="780" y="950" width="70" height="20" rx="10"/>
    <rect fill="#94a3b8" x="980" y="954" width="80" height="12" rx="3"/>
    <rect fill="#8b5cf6" x="1180" y="954" width="100" height="12" rx="6" opacity="0.3"/>
    <rect fill="#8b5cf6" x="1180" y="954" width="75" height="12" rx="6"/>
    <rect fill="#334155" x="1480" y="950" width="80" height="20" rx="6"/>
  </g>
  
  <g>
    <circle cx="400" cy="1010" r="16" fill="#10b981"/>
    <rect fill="#e2e8f0" x="430" y="1004" width="80" height="12" rx="3"/>
    <rect fill="#94a3b8" x="580" y="1004" width="140" height="12" rx="3"/>
    <rect fill="#f59e0b" x="780" y="1000" width="80" height="20" rx="10"/>
    <rect fill="#94a3b8" x="980" y="1004" width="60" height="12" rx="3"/>
    <rect fill="#8b5cf6" x="1180" y="1004" width="100" height="12" rx="6" opacity="0.3"/>
    <rect fill="#8b5cf6" x="1180" y="1004" width="90" height="12" rx="6"/>
    <rect fill="#334155" x="1480" y="1000" width="80" height="20" rx="6"/>
  </g>
  
  <!-- Floating notification -->
  <g transform="translate(1600, 80)">
    <rect fill="#1e293b" x="0" y="0" width="280" height="70" rx="12" stroke="#334155" stroke-width="1"/>
    <circle cx="30" cy="35" r="16" fill="#10b981" opacity="0.2"/>
    <circle cx="30" cy="35" r="8" fill="#10b981"/>
    <rect fill="#e2e8f0" x="55" y="22" width="160" height="10" rx="3"/>
    <rect fill="#64748b" x="55" y="38" width="200" height="8" rx="2"/>
    <text x="260" y="30" fill="#64748b" font-family="Arial" font-size="10">2m ago</text>
  </g>
</svg>
